<svg width="1440" height="800" viewBox="0 0 1440 800" fill="none" xmlns="http://www.w3.org/2000/svg">
  <path d="M-233.536 358.893C-131.536 303.893 -19.536 276.893 89.464 268.893C198.464 260.893 307.464 271.893 411.464 301.893C515.464 331.893 611.464 378.893 693.464 441.893C775.464 504.893 845.464 583.893 893.464 675.893C941.464 767.893 968.464 875.893 958.464 983.893C948.464 1091.89 903.464 1197.89 834.464 1291.89C765.464 1385.89 671.464 1465.89 565.464 1520.89" stroke="white" stroke-opacity="0.2" stroke-width="2"/>
  <path d="M1548.11 321.786C1451.37 352.346 1347.18 366.906 1242.99 361.466C1138.81 356.026 1036.68 330.346 944.548 287.466C852.418 244.586 762.278 182.906 693.138 106.346C623.998 29.7861 573.198 -61.6139 547.098 -158.614C520.998 -255.614 518.898 -358.614 540.998 -458.614C563.098 -558.614 611.998 -653.614 683.098 -735.614C754.198 -817.614 849.098 -885.614 953.998 -932.614" stroke="white" stroke-opacity="0.15" stroke-width="2"/>
  <path d="M-135.109 1035.9C-42.0094 963.902 72.2906 911.902 194.891 885.902C317.491 859.902 448.391 859.902 578.891 885.902C709.391 911.902 828.091 959.902 936.991 1035.9C1045.89 1111.9 1133.99 1213.9 1193.99 1334.9C1253.99 1455.9 1285.99 1595.9 1283.49 1735.9C1280.99 1875.9 1242.99 2013.9 1176.99 2136.9C1110.99 2259.9 1016.99 2363.9 905.891 2438.9" stroke="white" stroke-opacity="0.1" stroke-width="2"/>
  <path d="M1548.11 321.786C1451.37 352.346 1347.18 366.906 1242.99 361.466C1138.81 356.026 1036.68 330.346 944.548 287.466C852.418 244.586 762.278 182.906 693.138 106.346C623.998 29.7861 573.198 -61.6139 547.098 -158.614C520.998 -255.614 518.898 -358.614 540.998 -458.614C563.098 -558.614 611.998 -653.614 683.098 -735.614C754.198 -817.614 849.098 -885.614 953.998 -932.614" stroke="white" stroke-opacity="0.15" stroke-width="2"/>
  <circle cx="720" cy="400" r="350" stroke="white" stroke-opacity="0.08" stroke-width="0.5"/>
  <circle cx="720" cy="400" r="250" stroke="white" stroke-opacity="0.1" stroke-width="0.5"/>
  <circle cx="720" cy="400" r="150" stroke="white" stroke-opacity="0.12" stroke-width="0.5"/>
</svg> 